<mxfile host="app.diagrams.net" agent="Mozilla/5.0 (Windows NT 10.0; Win64; x64) AppleWebKit/537.36 (KHTML, like Gecko) Chrome/127.0.0.0 Safari/537.36" version="24.7.7">
  <diagram id="R2lEEEUBdFMjLlhIrx00" name="Page-1">
    <mxGraphModel dx="1434" dy="746" grid="1" gridSize="10" guides="1" tooltips="1" connect="1" arrows="1" fold="1" page="1" pageScale="1" pageWidth="850" pageHeight="1100" math="0" shadow="0" extFonts="Permanent Marker^https://fonts.googleapis.com/css?family=Permanent+Marker">
      <root>
        <mxCell id="0" />
        <mxCell id="1" parent="0" />
        <mxCell id="VG_S875LudzLEFEnpeIr-1" value="회원" style="swimlane;fontStyle=0;childLayout=stackLayout;horizontal=1;startSize=30;horizontalStack=0;resizeParent=1;resizeParentMax=0;resizeLast=0;collapsible=1;marginBottom=0;whiteSpace=wrap;html=1;" vertex="1" parent="1">
          <mxGeometry x="140" y="220" width="140" height="90" as="geometry" />
        </mxCell>
        <mxCell id="VG_S875LudzLEFEnpeIr-2" value="회원번호" style="text;strokeColor=default;fillColor=none;align=left;verticalAlign=middle;spacingLeft=4;spacingRight=4;overflow=hidden;points=[[0,0.5],[1,0.5]];portConstraint=eastwest;rotatable=0;whiteSpace=wrap;html=1;" vertex="1" parent="VG_S875LudzLEFEnpeIr-1">
          <mxGeometry y="30" width="140" height="30" as="geometry" />
        </mxCell>
        <mxCell id="VG_S875LudzLEFEnpeIr-3" value="etc..." style="text;strokeColor=none;fillColor=none;align=left;verticalAlign=middle;spacingLeft=4;spacingRight=4;overflow=hidden;points=[[0,0.5],[1,0.5]];portConstraint=eastwest;rotatable=0;whiteSpace=wrap;html=1;" vertex="1" parent="VG_S875LudzLEFEnpeIr-1">
          <mxGeometry y="60" width="140" height="30" as="geometry" />
        </mxCell>
        <mxCell id="VG_S875LudzLEFEnpeIr-5" value="게시판" style="swimlane;fontStyle=0;childLayout=stackLayout;horizontal=1;startSize=30;horizontalStack=0;resizeParent=1;resizeParentMax=0;resizeLast=0;collapsible=1;marginBottom=0;whiteSpace=wrap;html=1;" vertex="1" parent="1">
          <mxGeometry x="340" y="360" width="140" height="210" as="geometry" />
        </mxCell>
        <mxCell id="VG_S875LudzLEFEnpeIr-6" value="board_id pk int" style="text;strokeColor=default;fillColor=none;align=left;verticalAlign=middle;spacingLeft=4;spacingRight=4;overflow=hidden;points=[[0,0.5],[1,0.5]];portConstraint=eastwest;rotatable=0;whiteSpace=wrap;html=1;" vertex="1" parent="VG_S875LudzLEFEnpeIr-5">
          <mxGeometry y="30" width="140" height="30" as="geometry" />
        </mxCell>
        <mxCell id="VG_S875LudzLEFEnpeIr-7" value="&lt;div&gt;&lt;span style=&quot;background-color: initial;&quot;&gt;board_title&amp;nbsp;&lt;/span&gt;&lt;br&gt;&lt;/div&gt;&lt;div&gt;board_writer (FK)&lt;/div&gt;&lt;div&gt;board_date&lt;/div&gt;&lt;div&gt;board_view&lt;/div&gt;&lt;div&gt;board_content&lt;/div&gt;&lt;div&gt;board_status&lt;/div&gt;&lt;div&gt;board_comments_count&lt;/div&gt;&lt;div&gt;board_last_modified&lt;/div&gt;&lt;div&gt;board_like&lt;/div&gt;" style="text;strokeColor=none;fillColor=none;align=left;verticalAlign=middle;spacingLeft=4;spacingRight=4;overflow=hidden;points=[[0,0.5],[1,0.5]];portConstraint=eastwest;rotatable=0;whiteSpace=wrap;html=1;" vertex="1" parent="VG_S875LudzLEFEnpeIr-5">
          <mxGeometry y="60" width="140" height="150" as="geometry" />
        </mxCell>
        <mxCell id="VG_S875LudzLEFEnpeIr-9" style="edgeStyle=orthogonalEdgeStyle;rounded=0;orthogonalLoop=1;jettySize=auto;html=1;exitX=1;exitY=0.5;exitDx=0;exitDy=0;entryX=0.014;entryY=0.207;entryDx=0;entryDy=0;entryPerimeter=0;" edge="1" parent="1" source="VG_S875LudzLEFEnpeIr-2" target="VG_S875LudzLEFEnpeIr-7">
          <mxGeometry relative="1" as="geometry" />
        </mxCell>
        <mxCell id="VG_S875LudzLEFEnpeIr-10" value="댓글" style="swimlane;fontStyle=0;childLayout=stackLayout;horizontal=1;startSize=30;horizontalStack=0;resizeParent=1;resizeParentMax=0;resizeLast=0;collapsible=1;marginBottom=0;whiteSpace=wrap;html=1;" vertex="1" parent="1">
          <mxGeometry x="580" y="220" width="140" height="210" as="geometry" />
        </mxCell>
        <mxCell id="VG_S875LudzLEFEnpeIr-11" value="comment_id pk int" style="text;strokeColor=default;fillColor=none;align=left;verticalAlign=middle;spacingLeft=4;spacingRight=4;overflow=hidden;points=[[0,0.5],[1,0.5]];portConstraint=eastwest;rotatable=0;whiteSpace=wrap;html=1;" vertex="1" parent="VG_S875LudzLEFEnpeIr-10">
          <mxGeometry y="30" width="140" height="30" as="geometry" />
        </mxCell>
        <mxCell id="VG_S875LudzLEFEnpeIr-12" value="&lt;div&gt;&lt;span style=&quot;background-color: initial;&quot;&gt;board_id fk&lt;/span&gt;&lt;/div&gt;&lt;div&gt;&lt;span style=&quot;background-color: initial;&quot;&gt;comment_writer fk&lt;/span&gt;&lt;/div&gt;&lt;div&gt;comment_content&lt;/div&gt;&lt;div&gt;comment_like&lt;br&gt;&lt;/div&gt;&lt;div&gt;comment_bad&lt;br&gt;&lt;/div&gt;&lt;div&gt;comment_date&lt;br&gt;&lt;/div&gt;&lt;div&gt;comment_status&lt;br&gt;&lt;/div&gt;&lt;div&gt;comment_last_modified&lt;br&gt;&lt;/div&gt;" style="text;strokeColor=none;fillColor=none;align=left;verticalAlign=middle;spacingLeft=4;spacingRight=4;overflow=hidden;points=[[0,0.5],[1,0.5]];portConstraint=eastwest;rotatable=0;whiteSpace=wrap;html=1;" vertex="1" parent="VG_S875LudzLEFEnpeIr-10">
          <mxGeometry y="60" width="140" height="150" as="geometry" />
        </mxCell>
        <mxCell id="VG_S875LudzLEFEnpeIr-16" style="edgeStyle=orthogonalEdgeStyle;rounded=0;orthogonalLoop=1;jettySize=auto;html=1;exitX=1;exitY=0.5;exitDx=0;exitDy=0;entryX=0.021;entryY=0.247;entryDx=0;entryDy=0;entryPerimeter=0;" edge="1" parent="1" source="VG_S875LudzLEFEnpeIr-6" target="VG_S875LudzLEFEnpeIr-12">
          <mxGeometry relative="1" as="geometry" />
        </mxCell>
        <mxCell id="VG_S875LudzLEFEnpeIr-17" style="edgeStyle=orthogonalEdgeStyle;rounded=0;orthogonalLoop=1;jettySize=auto;html=1;exitX=1;exitY=0.5;exitDx=0;exitDy=0;entryX=0.021;entryY=0.36;entryDx=0;entryDy=0;entryPerimeter=0;" edge="1" parent="1" source="VG_S875LudzLEFEnpeIr-2" target="VG_S875LudzLEFEnpeIr-12">
          <mxGeometry relative="1" as="geometry" />
        </mxCell>
        <mxCell id="VG_S875LudzLEFEnpeIr-19" style="edgeStyle=orthogonalEdgeStyle;rounded=0;orthogonalLoop=1;jettySize=auto;html=1;entryX=1;entryY=0.5;entryDx=0;entryDy=0;" edge="1" parent="1" source="VG_S875LudzLEFEnpeIr-18" target="VG_S875LudzLEFEnpeIr-12">
          <mxGeometry relative="1" as="geometry" />
        </mxCell>
        <mxCell id="VG_S875LudzLEFEnpeIr-18" value="&lt;li&gt;&lt;p&gt;&lt;strong style=&quot;background-color: initial;&quot;&gt;추후: comment_parent_id&lt;/strong&gt;&lt;br&gt;&lt;/p&gt;&lt;/li&gt;&lt;li&gt;&lt;p&gt;&lt;span style=&quot;background-color: initial;&quot;&gt;답글(대댓글) 기능을 구현할 경우, 이 필드가 사용됩니다.&lt;/span&gt;&lt;/p&gt;&lt;/li&gt;&lt;li&gt;&lt;ul&gt;&lt;li&gt;&amp;nbsp;특정 댓글에 대한 답글인 경우, 해당 댓글의 &lt;code&gt;comment_id&lt;/code&gt;를 참조합니다.&lt;/li&gt;&lt;/ul&gt;&lt;/li&gt;&lt;li&gt;&lt;strong&gt;comment_ip_address (ip추적용)&lt;/strong&gt;&lt;/li&gt;" style="text;html=1;align=center;verticalAlign=middle;resizable=0;points=[];autosize=1;strokeColor=none;fillColor=none;" vertex="1" parent="1">
          <mxGeometry x="560" y="430" width="440" height="190" as="geometry" />
        </mxCell>
      </root>
    </mxGraphModel>
  </diagram>
</mxfile>
